<svg width="280" height="280" viewBox="0 0 280 280" fill="none" xmlns="http://www.w3.org/2000/svg">
<g clip-path="url(#clip0_1051_68)">
<path d="M140 58.333C175.438 58.333 204.167 87.061 204.167 122.499C204.167 146.145 191.375 166.804 172.335 177.934C169.297 179.71 167.814 183.417 169.167 186.666L179.449 204.293C193.027 227.569 199.816 239.208 194.803 247.98C189.789 256.753 176.315 256.812 149.368 256.929L140 256.969L130.977 256.93C103.896 256.813 90.355 256.754 85.3486 247.944C80.3423 239.134 87.2224 227.471 100.982 204.146L110.461 188.08C110.709 187.659 110.913 187.214 111.069 186.751C112.216 183.345 110.59 179.656 107.493 177.833C88.5476 166.679 75.834 146.074 75.834 122.499C75.8342 87.061 104.562 58.3331 140 58.333Z" fill="black" style="fill:black;fill-opacity:1;"/>
</g>
<defs>
<clipPath id="clip0_1051_68">
<rect width="280" height="280" fill="white" style="fill:white;fill-opacity:1;"/>
</clipPath>
</defs>
</svg>
